<?xml version="1.0" ?><svg xmlns="http://www.w3.org/2000/svg" xmlns:xlink="http://www.w3.org/1999/xlink" version="1.0" viewBox="0 0 48 48" enable-background="new 0 0 48 48" xml:space="preserve"><g id="Layer_1"/><g id="_x31_9_x5F_Presentation"><path d="M20,32h-5.735c-1.747,0-3.389-0.931-4.287-2.428l-1.835-3.058c-0.284-0.474-0.131-1.088,0.343-1.372   c0.474-0.285,1.088-0.131,1.372,0.343l1.835,3.058C12.231,29.441,13.217,30,14.265,30H20c0.551,0,1-0.448,1-1s-0.449-1-1-1h-4.419   c-0.716,0-1.381-0.386-1.737-1.008l-2.56-4.48C10.75,21.579,9.752,21,8.679,21H6c-0.551,0-1,0.449-1,1v18c0,0.553-0.448,1-1,1   s-1-0.447-1-1V22c0-1.654,1.346-3,3-3h2.679c1.79,0,3.453,0.965,4.341,2.52L15.58,26H20c1.654,0,3,1.346,3,3S21.654,32,20,32z    M42,7H14c-0.552,0-1,0.448-1,1s0.448,1,1,1h28c0.552,0,1,0.449,1,1v23c0,0.552-0.448,1-1,1H17c-0.552,0-1,0.447-1,1s0.448,1,1,1   h25c1.654,0,3-1.346,3-3V10C45,8.346,43.654,7,42,7z M4,12c0-2.757,1.794-5,4-5s4,2.243,4,5s-1.794,5-4,5S4,14.757,4,12z M6,12   c0,1.626,0.916,3,2,3s2-1.374,2-3S9.084,9,8,9S6,10.374,6,12z M13,34c-0.552,0-1,0.447-1,1v5c0,0.553,0.448,1,1,1s1-0.447,1-1v-5   C14,34.447,13.552,34,13,34z M38,20v11c0,0.552,0.448,1,1,1s1-0.448,1-1V20c0-0.552-0.448-1-1-1S38,19.448,38,20z M33,22   c-0.552,0-1,0.448-1,1v8c0,0.552,0.448,1,1,1s1-0.448,1-1v-8C34,22.448,33.552,22,33,22z M27,25c-0.552,0-1,0.448-1,1v5   c0,0.552,0.448,1,1,1s1-0.448,1-1v-5C28,25.448,27.552,25,27,25z M39.707,15.293l-2-2c-0.2-0.201-0.477-0.306-0.763-0.292   c-0.283,0.016-0.548,0.152-0.726,0.374l-3.302,4.127l-1.21-1.21c-0.2-0.201-0.476-0.302-0.763-0.292   c-0.283,0.016-0.548,0.152-0.726,0.374l-3.302,4.127l-1.21-1.21c-0.391-0.391-1.023-0.391-1.414,0s-0.391,1.023,0,1.414l2,2   C26.48,22.895,26.735,23,27,23c0.019,0,0.037,0,0.056-0.001c0.283-0.016,0.548-0.152,0.726-0.374l3.302-4.127l1.21,1.21   c0.2,0.201,0.481,0.308,0.763,0.292c0.283-0.016,0.548-0.152,0.726-0.374l3.302-4.127l1.21,1.21c0.391,0.391,1.023,0.391,1.414,0   S40.098,15.684,39.707,15.293z M26,12H16c-0.552,0-1,0.448-1,1s0.448,1,1,1h10c0.553,0,1-0.448,1-1S26.553,12,26,12z M16,19h3   c0.552,0,1-0.448,1-1s-0.448-1-1-1h-3c-0.552,0-1,0.448-1,1S15.448,19,16,19z"/></g></svg>